<svg xmlns="http://www.w3.org/2000/svg"  viewBox="0 0 50 50" width="100px" height="100px"><path d="M 8 7 C 4.69 7 2 9.69 2 13 L 2 33 C 2 35.97 4.16 38.440156 7 38.910156 L 7 36.869141 C 5.27 36.429141 4 34.86 4 33 L 4 13 C 4 10.79 5.79 9 8 9 L 41 9 C 43.21 9 45 10.79 45 13 L 45 33 C 45 34.86 43.73 36.429141 42 36.869141 L 42 38.910156 C 44.84 38.440156 47 35.97 47 33 L 47 13 C 47 9.69 44.31 7 41 7 L 8 7 z M 36.5 15 C 35.119 15 34 16.119 34 17.5 L 34 41.5 C 34 42.881 35.119 44 36.5 44 C 37.881 44 39 42.881 39 41.5 L 39 17.5 C 39 16.119 37.881 15 36.5 15 z M 20.5 21 C 19.119 21 18 22.119 18 23.5 L 18 41.5 C 18 42.881 19.119 44 20.5 44 C 21.881 44 23 42.881 23 41.5 L 23 23.5 C 23 22.119 21.881 21 20.5 21 z M 28.5 25 C 27.119 25 26 26.119 26 27.5 L 26 41.5 C 26 42.881 27.119 44 28.5 44 C 29.881 44 31 42.881 31 41.5 L 31 27.5 C 31 26.119 29.881 25 28.5 25 z M 12.5 30 C 11.119 30 10 31.119 10 32.5 L 10 41.5 C 10 42.881 11.119 44 12.5 44 C 13.881 44 15 42.881 15 41.5 L 15 32.5 C 15 31.119 13.881 30 12.5 30 z"/></svg>